<svg width="74" height="23" viewBox="0 0 74 23" fill="none" xmlns="http://www.w3.org/2000/svg">
<path d="M63.6535 0C70.5512 0 74 3.87055 74 11.6116C74 15.6311 72.5755 18.534 69.7265 20.3204C67.0274 22.1068 63.6535 23 59.6049 23C58.4053 23 57.1307 22.9256 55.7812 22.7767C54.4316 22.6278 53.0071 22.479 51.5076 22.3301C47.0091 21.5858 42.9605 21.2136 39.3617 21.2136C36.8126 21.2136 32.9889 21.5113 27.8906 22.1068C22.4924 22.7023 18.3688 23 15.5198 23C11.4711 23 7.87234 22.2557 4.7234 20.767C1.57447 19.1294 0 16.4498 0 12.7282C0 7.5178 1.94934 4.16828 5.84802 2.67961C9.74671 1.04207 15.2199 0.223305 22.2675 0.223305L29.69 0.446603C33.2888 0.744338 36.0628 0.893206 38.0122 0.893206L54.4316 0.446603L63.6535 0Z" fill="#979797"/>
</svg>
