<svg width="61" height="75" viewBox="0 0 61 75" fill="none" xmlns="http://www.w3.org/2000/svg">
<path d="M52.3534 7.2619C54.9592 11.3095 57.0518 15.9524 58.6311 21.1905C60.2104 26.3492 61 31.627 61 37.0238C61 43.4524 59.8945 49.5635 57.6835 55.3571C55.5515 61.1508 52.3139 65.873 47.9709 69.5238C43.7068 73.1746 38.4951 75 32.3359 75C26.5715 75 21.2809 73.5317 16.4641 70.5952C11.6472 67.5794 8.01489 64.0873 5.56699 60.119C3.75081 57.1825 2.36893 53.8889 1.42136 50.2381C0.473786 46.5079 0 42.7778 0 39.0476C0 32.5397 1.34239 26.1905 4.02718 20C6.79094 13.8095 10.5812 8.8492 15.3981 5.11905C19.978 1.70635 25.2291 0 31.1515 0C37.7055 0 44.7728 2.42063 52.3534 7.2619ZM20.6097 15.4762C19.899 16.6667 19.1883 17.7381 18.4777 18.6905C16.7405 21.3095 15.477 23.5317 14.6874 25.3571C13.8977 27.1032 13.1871 29.8016 12.5553 33.4524C12.2395 35.119 12.0816 37.0635 12.0816 39.2857C12.0816 44.9206 13.1871 49.8016 15.3981 53.9286C17.688 57.9762 20.8071 60.7143 24.7553 62.1429C26.6505 62.8571 28.7825 63.2143 31.1515 63.2143C37.0738 63.2143 41.5353 60.5952 44.5359 55.3571C47.6155 50.0397 49.1553 43.4921 49.1553 35.7143C49.1553 28.4921 47.8129 22.5794 45.1282 17.9762C42.4434 13.2936 38.2977 10.9524 32.6913 10.9524C30.4013 10.9524 28.4272 11.3095 26.7689 12.0238C25.1896 12.7381 23.1366 13.8889 20.6097 15.4762Z" fill="white"/>
</svg>
