<svg width="46" height="73" viewBox="0 0 46 73" fill="none" xmlns="http://www.w3.org/2000/svg">
<path d="M30.7855 11.8567C29.9931 27.0456 29.5969 39.1348 29.5969 48.1242C29.5969 52.7739 29.7158 57.1911 29.9535 61.3758C30.5874 61.8408 31.8157 62.0732 33.6382 62.0732L36.3721 61.957C37.4815 61.802 38.5116 61.7245 39.4625 61.7245C41.5228 61.7245 43.1077 62.0732 44.2171 62.7707C45.4057 63.4681 46 64.8243 46 66.8392C46 68.7765 45.4057 70.2877 44.2171 71.3726C43.1077 72.4575 40.77 73 37.2041 73C34.1929 73 30.5478 72.7675 26.2687 72.3025C25.2386 72.225 24.2481 72.1476 23.2972 72.0701C22.3463 71.9926 21.4746 71.9538 20.6822 71.9538C16.3239 72.0313 13.0749 72.1863 10.9354 72.4188C8.79587 72.6513 6.37898 72.7675 3.68475 72.7675C1.22825 72.7675 0 70.9464 0 67.3041C0 63.8169 2.29802 62.0732 6.89406 62.0732C7.60724 62.0732 8.75624 62.1507 10.3411 62.3057C11.6882 62.5382 13.1146 62.6545 14.6202 62.6545C15.4918 62.6545 16.205 62.6157 16.7597 62.5382C16.8389 57.3461 17.1163 49.7903 17.5917 39.871C18.0672 28.2468 18.3049 19.6449 18.3049 14.0653C17.9087 14.1428 16.522 14.6852 14.1447 15.6927C10.4996 17.4751 7.80534 18.3662 6.06202 18.3662C5.11111 18.3662 4.23945 17.9013 3.44703 16.9713C2.65461 15.9639 2.2584 14.8015 2.2584 13.4841C2.2584 12.1667 3.09044 10.888 4.75452 9.64809C6.4186 8.40817 9.11283 6.78078 12.8372 4.76592C14.8975 3.75849 16.8786 2.63482 18.7804 1.3949C19.2558 1.08493 19.9294 0.774948 20.801 0.464969C21.7519 0.15499 22.4651 0 22.9406 0C25.0009 0 26.8631 0.42622 28.5271 1.27866C30.2705 2.05361 31.1421 3.09978 31.1421 4.4172L30.7855 11.8567Z" fill="white"/>
</svg>
