<svg width="54" height="73" viewBox="0 0 54 73" fill="none" xmlns="http://www.w3.org/2000/svg">
<path d="M17.0153 60.8722C19.6937 61.0277 21.4661 61.1054 22.3326 61.1054C25.0109 61.1054 27.3742 61.0666 29.4223 60.9888C31.5492 60.9111 33.3611 60.8333 34.8578 60.7556C38.7177 60.5224 42.1838 60.4057 45.256 60.4057C48.2495 60.4057 50.4551 61.1832 51.8731 62.738C53.291 64.2929 54 66.353 54 68.9185C54 70.1624 53.1729 71.1731 51.5186 71.9505C49.8643 72.6502 48.1707 73 46.4376 73C44.9409 73 41.8293 72.8445 37.1028 72.5335C31.4311 72.0671 26.9803 71.8339 23.7505 71.8339C22.0175 71.8339 19.9694 71.9505 17.6061 72.1837C16.6608 72.2615 15.5186 72.3392 14.1794 72.4169C12.8403 72.4947 11.3435 72.5335 9.68928 72.5335C6.53829 72.5335 4.13567 72.106 2.4814 71.2508C0.827134 70.3956 0 68.8408 0 66.5863C0 64.6427 0.787746 62.6603 2.36324 60.639C3.93873 58.6177 6.14442 56.2077 8.98031 53.4089L11.8162 50.6102C13.0766 49.2886 15.4004 47.0341 18.7877 43.8466C24.3807 38.8711 28.7133 34.4787 31.7856 30.6693C34.9365 26.86 36.512 23.0895 36.512 19.3578C36.512 16.9478 35.3304 15.0043 32.9672 13.5272C30.6827 11.9723 28.0438 11.1949 25.0503 11.1949C20.4814 11.1949 17.1729 12.2055 15.1247 14.2268C13.1554 16.1704 12.1707 19.008 12.1707 22.7396C12.1707 23.6725 11.6193 24.5277 10.5164 25.3051C9.49234 26.0048 8.19256 26.3546 6.61707 26.3546C4.41138 26.3546 2.87527 25.5772 2.00875 24.0224C1.14223 22.4675 0.708972 20.5628 0.708972 18.3083C0.708972 14.7322 1.81182 11.5836 4.01751 8.86262C6.22319 6.0639 9.21663 3.88712 12.9978 2.33227C16.8578 0.777424 21.1116 0 25.7593 0C29.0678 0 32.4945 0.816295 36.0394 2.44888C39.663 4.00373 42.6565 6.14164 45.0197 8.86262C47.4617 11.5059 48.6827 14.4212 48.6827 17.6086C48.6827 22.4286 47.4617 27.0154 45.0197 31.369C42.5777 35.7226 39.7024 39.6097 36.3939 43.0304C33.1641 46.3733 28.9497 50.3381 23.7505 54.9249C21.2298 57.024 18.9847 59.0064 17.0153 60.8722Z" fill="white"/>
</svg>
