<svg width="56" height="73" viewBox="0 0 56 73" fill="none" xmlns="http://www.w3.org/2000/svg">
<path d="M33.5527 25.7372C40.0113 27.141 45.3671 29.9097 49.6203 34.0433C53.8734 38.1768 56 42.9733 56 48.4327C56 51.7083 55.2124 54.906 53.6371 58.0256C51.1167 63.0171 47.3362 66.7607 42.2954 69.2564C37.3333 71.7521 31.5837 73 25.0464 73C20.9508 73 17.2883 72.2591 14.0591 70.7772C10.8298 69.2174 7.63994 67.1506 4.48945 64.5769C3.30802 63.485 2.24473 61.9252 1.29958 59.8974C0.433193 57.8697 0 56.1928 0 54.867C0 53.1512 0.472574 51.7863 1.41772 50.7724C2.44163 49.6806 3.78059 49.1346 5.4346 49.1346C7.08861 49.1346 8.38819 49.5246 9.33333 50.3045C10.2785 51.0844 11.4205 52.3323 12.7595 54.0481C14.0197 55.6859 15.1617 57.0118 16.1857 58.0256C17.2096 58.9615 18.5879 59.7804 20.3207 60.4824C22.0534 61.1843 24.2194 61.5353 26.8186 61.5353C32.0956 61.5353 36.2307 60.2484 39.2236 57.6747C42.2166 55.101 43.7131 51.4744 43.7131 46.7949C43.7131 45.0011 42.7286 43.2073 40.7595 41.4135C38.7904 39.5417 36.9395 38.2158 35.2068 37.4359C34.1828 36.89 32.2925 36.344 29.5359 35.7981C25.834 34.8622 23.038 33.9653 21.1477 33.1074C19.3361 32.1715 18.4304 30.7286 18.4304 28.7788C18.4304 27.453 19.0211 26.1661 20.2025 24.9183C21.384 23.5924 23.1561 21.9546 25.519 20.0048C27.8819 18.055 29.654 16.4562 30.8354 15.2083C32.0169 13.8825 32.6076 12.5566 32.6076 11.2308C31.1111 10.8408 28.8664 10.6458 25.8734 10.6458C24.5345 10.6458 22.526 10.7238 19.8481 10.8798C17.4852 11.0358 15.6737 11.1138 14.4135 11.1138C11.5781 11.1138 9.13643 10.6458 7.08861 9.70994C5.11955 8.77404 4.13502 7.56517 4.13502 6.08333C4.13502 4.44551 4.29255 3.15865 4.60759 2.22276C4.92264 1.20887 5.51336 0.584933 6.37975 0.350957C6.93108 0.116986 7.91561 0 9.33333 0C13.1927 0 16.5401 0.116986 19.3755 0.350957C22.526 0.506943 24.9283 0.584935 26.5823 0.584935L36.3882 0.467943C44.4219 0.467943 48.4388 2.37873 48.4388 6.20032C48.4388 9.086 46.9423 12.3616 43.9494 16.0272C41.0352 19.6148 37.5696 22.8515 33.5527 25.7372Z" fill="white"/>
</svg>
