<svg width="63" height="75" viewBox="0 0 63 75" fill="none" xmlns="http://www.w3.org/2000/svg">
<path d="M23.2044 3.66719C23.2044 7.53155 22.5083 12.0268 21.116 17.153C19.8011 22.2003 17.8674 28.4306 15.3149 35.8438L12.6464 44.0063C13.9613 44.2429 15.3149 44.3612 16.7072 44.3612C19.105 44.3612 22.7017 44.1246 27.4972 43.6514C32.2928 43.1782 35.7348 42.9416 37.8232 42.9416L37.7072 29.929C37.5525 20.9385 37.4751 14.3139 37.4751 10.0552C37.4751 4.45584 39.2928 1.65615 42.9282 1.65615C45.7901 1.65615 47.6077 2.40536 48.3812 3.90378C49.232 5.40221 49.6575 7.64984 49.6575 10.6467C49.6575 13.7224 49.4254 18.4937 48.9613 24.9606C48.884 26.2224 48.768 28.3123 48.6133 31.2303C48.4586 34.1483 48.3812 36.6719 48.3812 38.8013L48.4972 42.5868L50.8177 42.4685C52.674 42.3107 54.105 42.2319 55.1105 42.2319C56.9668 42.2319 58.7459 42.8628 60.4475 44.1246C62.1492 45.3076 63 46.7271 63 48.3833C63 50.3549 62.6906 51.8927 62.0718 52.9968C61.5304 54.1009 60.8729 54.653 60.0994 54.653C58.7845 54.653 57.1215 54.4953 55.1105 54.1798C54.6464 54.1798 53.9503 54.1404 53.0221 54.0615C52.0939 53.9038 51.2044 53.8249 50.3536 53.8249L48.3812 53.9432L48.4972 69.9132C48.4972 71.5694 47.9558 72.8312 46.8729 73.6987C45.7901 74.5662 44.5525 75 43.1602 75C41.4586 75 39.9503 74.448 38.6354 73.3439C37.3204 72.2397 36.663 70.8596 36.663 69.2035C36.663 63.9196 36.7403 59.7792 36.895 56.7823C36.9724 56.0726 37.011 55.205 37.011 54.1798C34.6906 54.1009 30.6685 54.377 24.9448 55.0079C19.5304 55.6388 15.4309 55.9543 12.6464 55.9543C9.0884 55.9543 6.07182 55.4416 3.59668 54.4164C1.19889 53.3912 0 51.7745 0 49.5662C0 47.4369 0.425414 44.8344 1.27624 41.7587C2.12707 38.683 3.40331 34.5426 5.10497 29.3375C5.87845 27.2871 6.45856 25.5915 6.8453 24.2508C8.23757 20.2287 9.28177 16.8375 9.9779 14.0773C10.674 11.2382 11.4475 7.80757 12.2983 3.78549C12.6077 2.52366 13.2652 1.57729 14.2707 0.946374C15.2762 0.315458 16.4365 0 17.7514 0C19.1436 0 20.3812 0.35489 21.4641 1.06467C22.6243 1.69559 23.2044 2.56309 23.2044 3.66719Z" fill="white"/>
</svg>
