<svg width="52" height="75" viewBox="0 0 52 75" fill="none" xmlns="http://www.w3.org/2000/svg">
<g clip-path="url(#clip0_429_5874)">
<path d="M15.9279 12.5C15.3814 14.6961 15.03 17.598 14.8739 21.2059C14.7177 24.3431 14.4835 26.6961 14.1712 28.2647C16.4354 27.3235 18.5826 26.7353 20.6126 26.5C22.6426 26.1863 25.2192 26.0294 28.3423 26.0294C33.1832 26.0294 37.3994 27.1667 40.991 29.4412C44.5826 31.6373 47.3153 34.6176 49.1892 38.3824C51.0631 42.0686 52 46.0294 52 50.2647C52 51.9118 51.4535 54.1471 50.3604 56.9706C49.2673 59.7157 48.1351 61.8333 46.964 63.3235C44.2312 66.9314 41.0691 69.7157 37.4775 71.6765C33.8859 73.5588 29.982 74.5 25.7658 74.5C22.5646 74.5 19.6366 74.0686 16.982 73.2059C14.4054 72.2647 11.6336 71.0098 8.66667 69.4412C5.62162 67.7941 3.3964 66.1078 1.99099 64.3824C0.663664 62.5784 0 60.3431 0 57.6765C0 56.2647 0.585586 55.1275 1.75676 54.2647C3.00601 53.3235 4.17718 52.8529 5.27027 52.8529C5.97297 52.8529 6.5976 53.049 7.14414 53.4412C7.69069 53.8333 8.58859 54.6177 9.83784 55.7941L12.7658 58.6177C14.6396 60.1863 16.4745 61.3627 18.2703 62.1471C20.1441 62.9314 22.4084 63.3235 25.0631 63.3235C27.4835 63.3235 29.4354 63.0098 30.9189 62.3824C33.8859 61.2059 36.1892 59.6765 37.8288 57.7941C39.5465 55.9118 40.4054 52.8922 40.4054 48.7353C40.4054 44.7353 39.0781 41.6373 36.4234 39.4412C33.7688 37.1667 29.2793 36.0294 22.955 36.0294C22.0961 36.0294 20.8468 36.2647 19.2072 36.7353C17.5676 37.2059 15.967 37.7157 14.4054 38.2647C10.6577 39.5196 8.35435 40.1471 7.4955 40.1471C6.4024 40.1471 5.30931 39.6765 4.21622 38.7353C3.12312 37.7941 2.57658 36.5392 2.57658 34.9706C3.98198 25.4804 4.68468 17.598 4.68468 11.3235L4.56757 8.38236C4.41141 6.97059 4.33333 5.79412 4.33333 4.85294C4.33333 3.44118 5.07508 2.38235 6.55856 1.67647C8.12012 0.892156 9.72072 0.5 11.3604 0.5C12.7658 0.5 15.8108 0.735296 20.4955 1.20589L26.1171 1.67647C26.8198 1.7549 27.8739 1.79412 29.2793 1.79412L33.6126 1.67647C34.4715 1.59804 35.7207 1.55882 37.3604 1.55882C39.7027 1.55882 41.6547 1.91177 43.2162 2.61765C44.7778 3.32353 45.5586 4.46078 45.5586 6.02941C45.5586 8.46078 45.1682 10.2255 44.3874 11.3235C43.6066 12.4216 42.7087 12.9706 41.6937 12.9706C40.7568 12.9706 39.1952 12.8137 37.009 12.5C34.1201 12.1863 30.7237 12.0294 26.8198 12.0294C24.0871 12.0294 20.4565 12.1863 15.9279 12.5Z" fill="white"/>
</g>
<defs>
<clipPath id="clip0_429_5874">
<rect width="52" height="74" fill="white" transform="translate(0 0.5)"/>
</clipPath>
</defs>
</svg>
