<svg width="52" height="73" viewBox="0 0 52 73" fill="none" xmlns="http://www.w3.org/2000/svg">
<path d="M31.1765 11.177C28.5098 12.1861 26.2353 13.5056 24.3529 15.1356C22.4706 16.6879 20.7843 18.5896 19.2941 20.8405L17.4118 23.7512C16 25.8469 14.9412 27.5545 14.2353 28.874C13.5294 30.1935 13.0588 31.5906 12.8235 33.0654C16.6667 29.1845 22.1569 27.244 29.2941 27.244C32.3529 27.244 35.5686 28.0978 38.9412 29.8054C42.3922 31.513 45.1765 33.4923 47.2941 35.7432C48.6275 37.218 49.7255 39.4689 50.5882 42.496C51.5294 45.5231 52 48.7443 52 52.1595C52 54.8761 51.1765 57.6704 49.5294 60.5423C47.8824 63.3365 45.8431 65.7815 43.4118 67.8772C41.0588 69.9729 38.8627 71.2924 36.8235 71.8357C33.6863 72.6119 30.9804 73 28.7059 73C23.5294 73 18.7451 71.6029 14.3529 68.8086C9.96078 66.0144 6.47059 62.2887 3.88235 57.6316C1.29412 52.8969 0 47.7741 0 42.2632C0 34.6566 1.84314 27.3993 5.52941 20.4912C9.29412 13.5056 14.2353 7.83945 20.3529 3.49283C21.3725 2.79426 23.1765 2.05689 25.7647 1.28071C28.4314 0.426902 30.7843 0 32.8235 0C36.6667 0 38.5882 1.51356 38.5882 4.54067C38.5882 6.32589 37.9216 7.72302 36.5882 8.73206C35.3333 9.7411 33.5294 10.5561 31.1765 11.177ZM26.4706 62.2887C28.2745 62.2887 29.8039 62.2111 31.0588 62.0558C32.3137 61.823 33.451 61.3961 34.4706 60.7751C36.0392 59.6885 37.4118 58.4078 38.5882 56.933C39.8431 55.3807 40.4706 53.9059 40.4706 52.5088C40.4706 47.1531 39.1373 43.3886 36.4706 41.2153C33.8824 39.042 30.8235 37.9165 27.2941 37.8389C25.4902 37.8389 23.4118 38.3434 21.0588 39.3525C18.7843 40.2839 16.8235 41.5258 15.1765 43.0782C13.6078 44.6305 12.8235 46.1441 12.8235 47.6188C12.8235 50.9564 13.5294 53.7507 14.9412 56.0016C16.4314 58.1749 18.2353 59.7661 20.3529 60.7751C22.4706 61.7842 24.5098 62.2887 26.4706 62.2887Z" fill="white"/>
</svg>
