<svg width="54" height="75" viewBox="0 0 54 75" fill="none" xmlns="http://www.w3.org/2000/svg">
<path d="M54 5.11905C52.987 9.96032 51.7013 14.7619 50.1429 19.5238C48.6623 24.2857 46.7533 29.7619 44.4156 35.9524C40.4416 46.8254 37.6364 55.5952 36 62.2619C34.6753 66.7857 33.4286 70.0397 32.2597 72.0238C31.0909 74.0079 29.7273 75 28.1688 75C26.9221 75 25.2468 74.246 23.1429 72.7381C22.5974 72.0238 22.3247 71.0317 22.3247 69.7619C22.3247 68.7302 22.5974 67.2222 23.1429 65.2381C23.6883 63.1746 24.3506 60.9127 25.1299 58.4524L26.5325 54.1667C27.5455 50.754 29.2597 46.1508 31.6753 40.3571C33.4675 35.9127 35.0649 31.627 36.4675 27.5C37.9481 23.373 39.3896 18.4524 40.7922 12.7381C36.7403 14.0079 32.7273 14.6429 28.7532 14.6429C26.8052 14.6429 23.8442 14.3651 19.8701 13.8095C16.5974 13.3333 14.2597 13.0952 12.8571 13.0952C12.9351 14.2857 13.5195 16.5476 14.6104 19.881C15.9351 23.2937 16.5974 25.873 16.5974 27.6191C16.5974 28.6508 16.2468 29.5238 15.5455 30.2381C14.8442 30.9524 13.7143 31.3095 12.1558 31.3095C10.1299 31.3095 8.57143 30.6746 7.48052 29.4048C6.46753 28.0556 5.61039 26.5476 4.90909 24.881C4.28571 23.1349 3.81818 21.9444 3.50649 21.3095C2.41558 18.7698 1.55844 16.1508 0.935065 13.4524C0.311688 10.6746 0 8.21429 0 6.07143C0 4.80159 0.311688 3.69048 0.935065 2.7381C1.63636 1.78571 2.41558 1.30952 3.27273 1.30952C4.44156 1.46825 6.19481 1.78571 8.53247 2.2619C12.2727 2.89683 15.3896 3.4127 17.8831 3.80952C20.4545 4.12699 23.1818 4.28572 26.0649 4.28572C33.1558 4.28572 38.6104 3.01587 42.4286 0.476191C42.974 0.15873 43.7922 0 44.8831 0C46.9091 0 48.9351 0.515873 50.961 1.54762C52.987 2.5 54 3.69047 54 5.11905Z" fill="white"/>
</svg>
