<svg width="55" height="75" viewBox="0 0 55 75" fill="none" xmlns="http://www.w3.org/2000/svg">
<path d="M39.2691 35.2381C44.0078 37.1429 47.8143 39.6825 50.6886 42.8571C53.5629 46.0318 55 49.6825 55 53.8095C55 55 54.7281 56.5079 54.1843 58.3333C53.7182 60.0794 53.0579 61.5873 52.2034 62.8571C47.0763 70.9524 38.0261 75 25.053 75C18.2945 75 12.4294 73.6111 7.45763 70.8333C2.48588 67.9762 0 63.7302 0 58.0952C0 50.0794 5.39901 43.2143 16.197 37.5C6.09816 33.6905 1.04873 28.0556 1.04873 20.5952C1.04873 16.0714 2.29167 12.2619 4.77754 9.16667C7.26342 6.07143 10.5261 3.76984 14.5657 2.2619C18.6829 0.753968 23.1497 0 27.9661 0C31.5396 0 35.1907 0.873016 38.9195 2.61905C42.6483 4.28571 45.2119 6.46825 46.6102 9.16667C48.0085 12.1825 48.7076 15 48.7076 17.619C48.7076 21.0317 48.0085 24.1667 46.6102 27.0238C45.2895 29.881 42.8425 32.619 39.2691 35.2381ZM27.1504 31.6667C29.6363 30 31.5395 28.6508 32.8602 27.6191C34.2585 26.5079 35.4237 25.1984 36.3559 23.6905C37.3658 22.1032 37.8708 20.2778 37.8708 18.2143C37.8708 15.8333 36.9386 13.8492 35.0742 12.2619C33.2097 10.6746 30.9569 9.88095 28.3157 9.88095C22.6448 9.88095 18.6829 10.873 16.4301 12.8571C14.2549 14.8413 13.1674 17.1825 13.1674 19.881C13.1674 22.0238 13.8665 23.8492 15.2648 25.3571C16.6631 26.7857 18.2168 27.9365 19.9258 28.8095C21.7126 29.6032 24.1208 30.5556 27.1504 31.6667ZM42.6483 52.9762C42.6483 51.627 41.7938 50.1984 40.0847 48.6905C38.4534 47.1825 36.5113 45.873 34.2585 44.7619C32.0056 43.5714 30.1024 42.7778 28.5487 42.381C25.9075 43.4921 22.9943 45.2778 19.8093 47.7381C16.6243 50.1191 14.6822 51.8651 13.9831 52.9762C13.2062 54.0873 12.6624 55.0397 12.3517 55.8333C12.1186 56.5476 12.0021 57.4206 12.0021 58.4524C12.0021 59.6429 12.7013 60.7937 14.0996 61.9048C15.4979 62.9365 17.1681 63.7698 19.1102 64.4048C21.0523 65.0397 22.7225 65.3571 24.1208 65.3571C29.6363 65.3571 34.1031 64.246 37.5212 62.0238C40.9393 59.7222 42.6483 56.7064 42.6483 52.9762Z" fill="white"/>
</svg>
