<svg width="52" height="75" viewBox="0 0 52 75" fill="none" xmlns="http://www.w3.org/2000/svg">
<g clip-path="url(#clip0_429_5876)">
<path d="M20.5609 62.6176C23.2705 61.7549 25.8605 60.1863 28.331 57.9118C30.8812 55.6373 32.9931 53.0882 34.6667 50.2647C36.4199 47.3627 37.4559 44.5784 37.7747 41.9118C35.5433 43.4804 33.272 44.5784 30.9609 45.2059C28.6498 45.8333 25.9801 46.1471 22.9517 46.1471C18.8874 46.1471 15.5402 45.4804 12.9103 44.1471C10.2805 42.7353 7.49119 40.7353 4.54253 38.1471C4.06437 37.6765 3.46667 36.6569 2.74943 35.0882C2.03218 33.4412 1.39464 31.4412 0.836782 29.0882C0.278927 26.6569 0 24.1863 0 21.6765C0 19.402 0.717241 17.0098 2.15172 14.5C3.58621 11.9902 5.37931 9.7549 7.53103 7.79412C9.76245 5.7549 11.8743 4.30392 13.8667 3.44118C15.6996 2.65687 17.8115 1.9902 20.2023 1.44118C22.6728 0.813726 24.7448 0.5 26.4184 0.5C32.0766 0.5 36.8184 1.79412 40.6437 4.38235C44.5487 6.97059 47.4176 10.4216 49.2506 14.7353C51.0835 19.049 52 23.8333 52 29.0882C52 38.1078 49.9678 46.3431 45.9034 53.7941C41.8391 61.1667 36.6989 66.8922 30.4828 70.9706C29.4467 71.6765 27.6536 72.4608 25.1034 73.3235C22.633 74.1078 20.3617 74.5 18.2897 74.5C16.6958 74.5 15.3011 73.7941 14.1057 72.3824C12.9103 70.9706 12.3126 69.3627 12.3126 67.5588C12.3126 66.3039 12.751 65.4412 13.6276 64.9706C14.5042 64.4216 15.9387 63.8725 17.931 63.3235L20.5609 62.6176ZM26.4184 10.5C25.1433 10.5 23.6291 10.7745 21.8759 11.3235C20.2023 11.7941 18.7678 12.3824 17.5724 13.0882C16.2176 13.8726 14.9027 15.0882 13.6276 16.7353C12.4322 18.3039 11.8345 19.5196 11.8345 20.3824C11.8345 30.6569 16.0582 35.7941 24.5057 35.7941C26.4184 35.7941 28.5303 35.402 30.8414 34.6176C33.2322 33.7549 35.2245 32.5784 36.8184 31.0882C38.4123 29.598 39.2092 27.9118 39.2092 26.0294C39.2092 20.8529 38.0935 16.9706 35.8621 14.3824C33.7103 11.7941 30.5625 10.5 26.4184 10.5Z" fill="white"/>
</g>
<defs>
<clipPath id="clip0_429_5876">
<rect width="52" height="74" fill="white" transform="translate(0 0.5)"/>
</clipPath>
</defs>
</svg>
