<svg width="68" height="43" viewBox="0 0 68 43" fill="none" xmlns="http://www.w3.org/2000/svg">
<path d="M56.0424 0.445895C59.6803 0.445895 62.3841 0.842247 64.1538 1.63495C65.9236 2.42766 66.8085 3.81489 66.8085 5.79666C66.8085 6.88663 66.4643 7.97659 65.7761 9.06657C64.7929 11.0483 63.3673 12.3365 61.4992 12.931C59.7294 13.5255 57.5664 13.8228 55.0101 13.8228C52.2571 13.8228 49.5533 13.6742 46.8987 13.3769C46.0138 13.3769 44.5881 13.3274 42.6217 13.2283C40.7537 13.0301 39.0331 12.931 37.4599 12.931C33.9204 12.931 30.2826 13.0796 26.5464 13.3769C25.2683 13.476 23.4002 13.5751 20.9422 13.6742C18.4842 13.7733 16.272 13.8228 14.3056 13.8228C10.3728 13.8228 7.42316 13.6742 5.45676 13.3769C3.58868 13.0796 2.2122 12.4356 1.32732 11.4447C0.44244 10.4538 0 8.86839 0 6.68845C0 3.91398 1.42564 1.88267 4.27692 0.594526C5.45676 0.198175 6.8824 0 8.55384 0C9.24208 0 12.8308 0.148632 19.3199 0.445895C20.2048 0.544982 21.7779 0.693614 24.0392 0.891791C26.3006 1.08997 28.2178 1.18906 29.791 1.18906L32.5931 1.04043C40.852 0.644072 48.6684 0.445895 56.0424 0.445895ZM56.0424 29.1501C59.7786 29.1501 62.4824 29.4969 64.1538 30.1905C65.9236 30.8841 66.8085 32.2218 66.8085 34.2036C66.8085 35.2936 66.4643 36.3835 65.7761 37.4735C64.7929 39.4553 63.3673 40.793 61.4992 41.4866C59.6311 42.0811 57.4681 42.3784 55.0101 42.3784C53.142 42.3784 50.4382 42.2793 46.8987 42.0811C43.9491 41.7838 40.8028 41.6352 37.4599 41.6352C33.9204 41.6352 30.2826 41.7838 26.5464 42.0811C25.2683 42.1802 23.4002 42.2793 20.9422 42.3784C18.4842 42.4775 16.272 42.527 14.3056 42.527C10.4711 42.527 7.57064 42.3784 5.60424 42.0811C3.63784 41.6848 2.2122 40.9911 1.32732 40.0003C0.44244 38.9103 0 37.2753 0 35.0954C0 32.3209 1.42564 30.2896 4.27692 29.0015C4.86684 28.7042 6.29248 28.5556 8.55384 28.5556C11.4051 28.5556 14.9938 28.7537 19.3199 29.1501C24.4325 29.5465 28.1687 29.7446 30.5284 29.7446C32.1015 29.7446 35.4444 29.6455 40.557 29.4474C46.8495 29.2492 52.0113 29.1501 56.0424 29.1501Z" fill="#979797"/>
</svg>
