<svg width="133" height="133" viewBox="0 0 133 133" fill="none" xmlns="http://www.w3.org/2000/svg">
<path d="M121.362 20.7812H37.323C35.7028 20.7909 34.1074 21.1793 32.6641 21.9154C31.2208 22.6514 29.9696 23.7148 29.0105 25.0206L3.24175 60.3487C1.94399 62.1372 1.24512 64.2903 1.24512 66.5C1.24512 68.7097 1.94399 70.8628 3.24175 72.6512L28.9274 108.062C29.891 109.363 31.1431 110.423 32.5854 111.159C34.0277 111.895 35.6209 112.286 37.2399 112.302H121.362C124.118 112.302 126.761 111.207 128.71 109.258C130.658 107.31 131.753 104.667 131.753 101.911V31.1719C131.753 28.4161 130.658 25.7732 128.71 23.8246C126.761 21.876 124.118 20.7813 121.362 20.7812ZM121.362 101.828H37.323L11.6374 66.5L37.323 31.1719H121.362V101.828Z" fill="#979797"/>
<path d="M65.3358 87.6965L81.8777 73.399L98.4196 87.6965L105.236 79.8827L89.8577 66.4996L105.236 53.1165L98.4196 45.3027L81.8777 59.6002L65.3358 45.3027L58.5195 53.1165L73.9808 66.4996L58.5195 79.8827L65.3358 87.6965V87.6965Z" fill="#979797"/>
</svg>
