<svg width="72" height="99" viewBox="0 0 72 99" fill="none" xmlns="http://www.w3.org/2000/svg">
<path d="M21.351 0C23.0562 0 24.4647 0.37193 25.5768 1.11579C26.6888 1.85965 27.2448 2.82667 27.2448 4.01685C27.2448 4.90948 26.1328 6.39719 23.9087 8.48C22.5743 9.81895 21.9071 10.4884 21.9071 10.4884C18.7934 14.059 16.1245 19.6007 13.9004 27.1137C11.7505 34.5523 10.6755 42.0281 10.6755 49.5411C10.6755 57.8723 11.6022 64.6786 13.4556 69.96C16.2728 77.6962 18.7563 82.7916 20.9062 85.2464C21.2769 85.6927 21.7588 86.1762 22.3519 86.6969C22.945 87.292 23.4268 87.7755 23.7975 88.1474C25.2061 89.412 26.2811 90.5278 27.0224 91.4948C27.8379 92.4618 28.2456 93.3916 28.2456 94.2843C28.2456 95.1025 27.875 95.8836 27.1336 96.6274C26.4664 97.4457 25.7621 97.8548 25.0208 97.8548C23.0932 97.8548 20.795 97.0366 18.1261 95.4001C15.4573 93.7636 13.5297 92.1643 12.3436 90.6022C8.48852 85.8415 5.44896 79.6674 3.2249 72.08C1.07497 64.4927 0 56.0127 0 46.64C0 42.1769 0.518949 37.4906 1.55685 32.5811C2.59474 27.6716 3.92919 23.1341 5.56017 18.9684C6.37566 16.7369 7.67303 14.1333 9.45228 11.1579C11.3057 8.10808 13.3073 5.50457 15.4573 3.34737C17.6072 1.11579 19.5718 0 21.351 0Z" fill="#979797"/>
<path d="M50.2731 0C52.1264 0 54.091 1.0414 56.1668 3.12421C58.3168 5.13264 60.2814 7.58737 62.0606 10.4884C63.914 13.3151 65.2484 15.807 66.0639 17.9642C67.6208 21.9811 68.9182 26.6302 69.9561 31.9116C70.994 37.1186 71.5129 46.64 71.5129 46.64C71.5129 46.64 70.4379 64.6043 68.288 72.1916C66.1381 79.7046 63.1356 85.8415 59.2805 90.6022C58.0944 92.1643 56.1668 93.7636 53.498 95.4001C50.8291 97.0366 48.5309 97.8548 46.6034 97.8548C45.7879 97.8548 45.0094 97.4457 44.2681 96.6274C43.6009 95.8836 43.2673 95.1025 43.2673 94.2843C43.2673 93.3916 43.6379 92.4618 44.3793 91.4948C45.1948 90.6022 46.3439 89.4864 47.8266 88.1474C49.7541 86.2134 50.7179 85.2464 50.7179 85.2464C52.8678 82.7916 55.3513 77.6962 58.1685 69.96C60.0219 64.6786 60.9486 57.8723 60.9486 49.5411C60.9486 42.0281 59.8366 34.4407 57.6125 26.779C55.4626 19.0428 52.8307 13.4267 49.717 9.93053L47.493 7.92211C45.343 6.06246 44.2681 4.72351 44.2681 3.90527C44.2681 2.6407 44.8241 1.67369 45.9361 1.00421C47.0482 0.334737 48.4938 0 50.2731 0Z" fill="#979797"/>
</svg>
