<svg width="65" height="75" viewBox="0 0 65 75" fill="none" xmlns="http://www.w3.org/2000/svg">
<path d="M59.5153 9.72656C60.6822 11.1328 61.4991 12.2656 61.9659 13.125C62.4327 13.9844 62.6661 14.8047 62.6661 15.5859C62.6661 16.5234 62.0437 17.6172 60.7989 18.8672C59.632 20.1172 58.465 20.7422 57.298 20.7422C55.7421 20.7422 54.4973 20.5078 53.5637 20.0391C52.6302 19.5703 51.8522 18.8281 51.2298 17.8125C49.985 15.9375 48.468 14.3359 46.6786 13.0078C44.8893 11.6016 42.0886 10.8984 38.2765 10.8984C35.009 10.8984 31.2747 11.6406 27.0736 13.125C22.9503 14.6094 19.994 16.4453 18.2047 18.6328C16.6487 20.5859 15.2873 23.5547 14.1203 27.5391C13.0311 31.5234 12.4865 35.3906 12.4865 39.1406C12.4865 43.6719 13.459 47.8516 15.4039 51.6797C17.4267 55.4297 20.3052 58.4375 24.0395 60.7031C27.8516 62.9688 32.4028 64.1016 37.693 64.1016C40.5715 64.1016 43.5278 63.5547 46.5619 62.4609C49.6738 61.2891 52.3579 59.4141 54.614 56.8359H54.4973C55.8977 55.3516 57.6481 54.6094 59.7487 54.6094C60.9934 54.6094 62.1604 55.1563 63.2495 56.25C64.4165 57.3438 65 58.4375 65 59.5312C65 60.7031 64.8055 61.7578 64.4165 62.6953C64.1053 63.5547 63.4829 64.5312 62.5494 65.625C59.3597 69.2187 55.5865 71.6797 51.2298 73.0078C46.8731 74.3359 41.6607 75 35.5925 75C30.2244 75 24.7786 73.7109 19.2549 71.1328C13.8091 68.5547 9.60802 65.4297 6.65171 61.7578C5.09575 59.4922 3.5787 56.25 2.10054 52.0312C0.70018 47.7344 0 44.2578 0 41.6016C0 34.8047 1.01137 28.3594 3.03411 22.2656C5.13465 16.0938 8.24656 11.1719 12.3698 7.5C15.0928 5 19.0215 3.125 24.1562 1.875C29.2908 0.624999 33.9976 0 38.2765 0C43.4889 0 47.5733 0.742187 50.5296 2.22656C53.5637 3.63281 56.5589 6.13281 59.5153 9.72656Z" fill="#979797"/>
</svg>
