<svg width="47" height="75" viewBox="0 0 47 75" fill="none" xmlns="http://www.w3.org/2000/svg">
<path d="M42.7594 0C44.0159 0 45.0368 0.347759 45.822 1.04328C46.6073 1.66152 47 2.43431 47 3.36167C47 4.21174 46.8037 4.98454 46.411 5.68006C43.8195 9.69861 41.5815 13.4467 39.6967 16.9243C37.812 20.4019 35.4561 24.9227 32.6291 30.4869C31.5297 32.6507 29.7627 36.0896 27.3283 40.8037C26.1504 43.0448 24.462 46.7156 22.2632 51.8161C19.0434 58.9258 16.4127 64.3354 14.3709 68.0448C11.9365 72.6816 9.1487 75 6.00752 75C2.00251 75 0 73.609 0 70.8269C0 69.745 0.353383 68.7403 1.06015 67.813C5.30075 61.7079 8.91312 55.796 11.8972 50.0773C14.9599 44.2813 18.2581 37.5193 21.792 29.7913C25.797 20.9815 29.1738 14.1036 31.9223 9.15765C33.2573 6.53014 34.6708 4.36631 36.1629 2.66615C37.7335 0.888717 39.9323 0 42.7594 0Z" fill="#979797"/>
</svg>
