<svg width="134" height="133" viewBox="0 0 134 133" fill="none" xmlns="http://www.w3.org/2000/svg">
<path fill-rule="evenodd" clip-rule="evenodd" d="M113.121 102.444C121.131 92.3146 125.53 79.8345 125.629 66.9583C125.727 54.0821 121.52 41.5371 113.665 31.2886C107.871 23.7221 100.297 17.6797 91.6065 13.6894C82.9157 9.69907 73.3725 7.88244 63.811 8.39828C54.2495 8.91412 44.9609 11.7467 36.7571 16.6485C28.5533 21.5502 21.6841 28.3719 16.75 36.5171V16.6253H8.375V45.7191L12.5625 49.8753H41.875V41.5628H23.5421C29.1369 31.9628 37.792 24.4843 48.1426 20.3065C58.4933 16.1287 69.9505 15.4893 80.7077 18.4892C91.4649 21.4891 100.91 27.9575 107.554 36.8745C114.198 45.7915 117.662 56.6498 117.401 67.7371C117.139 78.8245 113.167 89.51 106.11 98.1089C99.0537 106.708 89.3141 112.731 78.4273 115.228C67.5405 117.725 56.1259 116.555 45.9835 111.901C35.8411 107.247 27.5478 99.3752 22.4115 89.526L14.9829 93.3663C19.5064 102.002 26.1404 109.374 34.2773 114.807C42.4143 120.239 51.7943 123.559 61.5585 124.462C71.3228 125.365 81.1593 123.823 90.1675 119.976C99.1757 116.129 107.068 110.101 113.121 102.444V102.444ZM84.9727 94.3805L90.9023 88.5035L67 64.7713V33.2503H58.625V66.5003L59.8477 69.443L84.9727 94.3805V94.3805Z" fill="#979797"/>
</svg>
