<svg width="96" height="261" viewBox="0 0 96 261" fill="none" xmlns="http://www.w3.org/2000/svg">
<path d="M34.7883 18.1317C33.9153 21.263 33.4762 24.4993 33.4833 27.75C33.4833 47.47 49.53 63.5167 69.25 63.5167C72.5367 63.5167 75.775 63.0817 78.8683 62.2117C76.3294 68.4501 71.9897 73.7909 66.4029 77.5527C60.8161 81.3146 54.2353 83.327 47.5 83.3333C28.8433 83.3333 13.6667 68.1567 13.6667 49.5C13.6667 35.3383 22.415 23.1583 34.7883 18.1317ZM47.5 6C38.8965 6 30.4862 8.55123 23.3327 13.3311C16.1792 18.1109 10.6037 24.9047 7.31126 32.8533C4.01885 40.8018 3.1574 49.5482 4.83586 57.9864C6.51432 66.4246 10.6573 74.1755 16.7409 80.2591C22.8245 86.3427 30.5754 90.4857 39.0136 92.1641C47.4518 93.8426 56.1981 92.9812 64.1467 89.6887C72.0953 86.3963 78.8891 80.8208 83.6689 73.6673C88.4488 66.5137 91 58.1035 91 49.5C91 47.2767 90.8067 45.0533 90.5167 42.9267C88.1016 46.3132 84.9106 49.0721 81.2106 50.9725C77.5107 52.8729 73.4095 53.8596 69.25 53.85C63.7168 53.8501 58.3266 52.0927 53.8568 48.8313C49.387 45.5699 46.0686 40.9731 44.3803 35.7038C42.6919 30.4345 42.7209 24.7651 44.4631 19.5133C46.2052 14.2615 49.5704 9.69886 54.0733 6.48333C51.9467 6.19333 49.7233 6 47.5 6Z" fill="#979797"/>
<path d="M5 128H89" stroke="#979797" stroke-width="5" stroke-linecap="round"/>
<path d="M47.5 200.273C53.875 200.273 59.0909 205.55 59.0909 212C59.0909 218.45 53.875 223.727 47.5 223.727C41.125 223.727 35.9091 218.45 35.9091 212C35.9091 205.55 41.125 200.273 47.5 200.273ZM47.5 192.455C36.8364 192.455 28.1818 201.211 28.1818 212C28.1818 222.789 36.8364 231.545 47.5 231.545C58.1636 231.545 66.8182 222.789 66.8182 212C66.8182 201.211 58.1636 192.455 47.5 192.455ZM8.86364 215.909H16.5909C18.7159 215.909 20.4545 214.15 20.4545 212C20.4545 209.85 18.7159 208.091 16.5909 208.091H8.86364C6.73864 208.091 5 209.85 5 212C5 214.15 6.73864 215.909 8.86364 215.909ZM78.4091 215.909H86.1364C88.2614 215.909 90 214.15 90 212C90 209.85 88.2614 208.091 86.1364 208.091H78.4091C76.2841 208.091 74.5454 209.85 74.5454 212C74.5454 214.15 76.2841 215.909 78.4091 215.909ZM43.6364 172.909V180.727C43.6364 182.877 45.375 184.636 47.5 184.636C49.625 184.636 51.3636 182.877 51.3636 180.727V172.909C51.3636 170.759 49.625 169 47.5 169C45.375 169 43.6364 170.759 43.6364 172.909ZM43.6364 243.273V251.091C43.6364 253.241 45.375 255 47.5 255C49.625 255 51.3636 253.241 51.3636 251.091V243.273C51.3636 241.123 49.625 239.364 47.5 239.364C45.375 239.364 43.6364 241.123 43.6364 243.273ZM24.2795 182.995C23.9221 182.632 23.4975 182.345 23.0301 182.148C22.5627 181.952 22.0617 181.851 21.5557 181.851C21.0497 181.851 20.5486 181.952 20.0812 182.148C19.6138 182.345 19.1893 182.632 18.8318 182.995C18.4736 183.356 18.1895 183.786 17.9956 184.259C17.8017 184.732 17.7019 185.238 17.7019 185.75C17.7019 186.262 17.8017 186.769 17.9956 187.242C18.1895 187.715 18.4736 188.145 18.8318 188.506L22.9273 192.65C24.4341 194.175 26.9068 194.175 28.375 192.65C29.8432 191.125 29.8818 188.624 28.375 187.138L24.2795 182.995ZM72.0727 231.35C71.7153 230.988 71.2907 230.7 70.8233 230.504C70.3559 230.308 69.8549 230.207 69.3489 230.207C68.8428 230.207 68.3418 230.308 67.8744 230.504C67.407 230.7 66.9824 230.988 66.625 231.35C66.2668 231.712 65.9827 232.141 65.7888 232.614C65.5949 233.087 65.4951 233.594 65.4951 234.106C65.4951 234.618 65.5949 235.125 65.7888 235.598C65.9827 236.071 66.2668 236.5 66.625 236.862L70.7205 241.005C72.2273 242.53 74.7 242.53 76.1682 241.005C76.5264 240.644 76.8105 240.214 77.0044 239.741C77.1983 239.268 77.2981 238.762 77.2981 238.25C77.2981 237.738 77.1983 237.231 77.0044 236.758C76.8105 236.285 76.5264 235.855 76.1682 235.494L72.0727 231.35ZM76.1682 188.506C76.5264 188.145 76.8105 187.715 77.0044 187.242C77.1983 186.769 77.2981 186.262 77.2981 185.75C77.2981 185.238 77.1983 184.732 77.0044 184.259C76.8105 183.786 76.5264 183.356 76.1682 182.995C75.8107 182.632 75.3862 182.345 74.9188 182.148C74.4514 181.952 73.9503 181.851 73.4443 181.851C72.9383 181.851 72.4373 181.952 71.9699 182.148C71.5025 182.345 71.0779 182.632 70.7205 182.995L66.625 187.138C65.1182 188.663 65.1182 191.165 66.625 192.65C68.1318 194.135 70.6045 194.175 72.0727 192.65L76.1682 188.506ZM28.375 236.862C28.7332 236.5 29.0173 236.071 29.2112 235.598C29.4051 235.125 29.5049 234.618 29.5049 234.106C29.5049 233.594 29.4051 233.087 29.2112 232.614C29.0173 232.141 28.7332 231.712 28.375 231.35C28.0176 230.988 27.593 230.7 27.1256 230.504C26.6582 230.308 26.1571 230.207 25.6511 230.207C25.1451 230.207 24.6441 230.308 24.1767 230.504C23.7093 230.7 23.2847 230.988 22.9273 231.35L18.8318 235.494C17.325 237.018 17.325 239.52 18.8318 241.005C20.3386 242.491 22.8114 242.53 24.2795 241.005L28.375 236.862Z" fill="#979797"/>
</svg>
