<svg width="48" height="45" viewBox="0 0 48 45" fill="none" xmlns="http://www.w3.org/2000/svg">
<path d="M42.8818 12.0895C46.2939 12.0895 48 14.0597 48 18C48 19.6119 47.3084 20.8209 45.9251 21.6269C44.5418 22.4328 42.5591 23.3284 39.9769 24.3134C39.3314 24.5821 38.4092 24.8955 37.2104 25.2537C36.0115 25.5224 35.0893 25.8806 34.4438 26.3284C36.196 28.6567 37.6254 30.0448 38.732 30.4925C40.3919 31.5672 41.683 32.5522 42.6052 33.4478C43.6196 34.3433 44.1268 35.4627 44.1268 36.806C44.1268 38.6866 43.4813 40.2985 42.1902 41.6418C40.8991 42.8955 39.2392 43.5224 37.2104 43.5224C35.8271 43.5224 34.5821 43.1194 33.4755 42.3134C32.3689 41.5075 31.17 40.2537 29.879 38.5522C29.1412 37.7463 28.3112 36.5821 27.3891 35.0597C25.8213 32.4627 24.6225 31.1642 23.7925 31.1642C23.2392 31.1642 22.4553 31.8806 21.4409 33.3134C20.4265 34.7463 19.6888 36.0896 19.2277 37.3433C17.4755 42.4478 15.1239 45 12.1729 45C10.513 45 8.89914 44.5075 7.33141 43.5224C5.85591 42.4478 5.11816 40.9701 5.11816 39.0896C5.11816 37.6567 5.48703 36.4478 6.22478 35.4627C7.05476 34.4776 8.29971 33.2687 9.95965 31.8358C12.3573 29.8657 13.7406 28.1194 14.1095 26.597C13.1873 26.1493 11.7118 25.5672 9.683 24.8507C6.36311 23.7761 3.91931 22.7015 2.35159 21.6269C0.783862 20.7313 0 19.2985 0 17.3284C0 15.9851 0.368876 14.8657 1.10663 13.9701C1.75216 13.0746 2.58213 12.403 3.59654 11.9552C4.61095 11.4179 5.57925 11.1493 6.50144 11.1493C7.79251 11.1493 8.94524 11.4179 9.95965 11.9552C11.0663 12.4925 12.4496 13.3433 14.1095 14.5075C14.5706 14.8657 15.4006 15.5373 16.5994 16.5224C17.7983 17.5075 18.8588 18.0896 19.781 18.2687C19.781 17.194 19.4582 15.1791 18.8127 12.2239C18.2594 9.89552 17.9827 8.19403 17.9827 7.1194C17.9827 4.97015 18.8588 3.26865 20.611 2.01492C22.3631 0.671641 24.3919 0 26.6974 0C28.2651 0 29.5101 0.626866 30.4323 1.8806C31.3545 3.04477 31.8156 4.47761 31.8156 6.17911C31.8156 7.61194 31.3545 9.85074 30.4323 12.8955C29.6945 15.7612 29.3718 17.5522 29.464 18.2687C30.2939 18.1791 31.3084 17.6418 32.5072 16.6567C33.7061 15.6716 34.536 15.0448 34.9971 14.7761C36.5648 13.8806 37.902 13.209 39.0086 12.7612C40.2075 12.3134 41.4986 12.0895 42.8818 12.0895Z" fill="#979797"/>
</svg>
