<svg width="84" height="97" viewBox="0 0 84 97" fill="none" xmlns="http://www.w3.org/2000/svg">
<path d="M43.8456 21.6218C47.1883 21.6218 49.4039 21.9753 50.4922 22.6822C51.5806 23.3106 52.1247 24.7245 52.1247 26.9239C52.1247 28.6519 51.3085 29.9087 49.676 30.6942C48.0434 31.4797 46.1389 31.8724 43.9622 31.8724L40.1141 31.9902C37.471 32.1473 35.5275 32.2259 34.2837 32.2259C33.1954 32.2259 32.4957 32.1866 32.1848 32.1081C32.0293 32.6579 31.9516 33.5612 31.9516 34.818C31.8738 35.9176 31.9904 37.6457 32.3014 40.0022C32.3791 40.4735 32.4569 41.1411 32.5346 42.0051C32.6123 42.8692 32.6512 43.6547 32.6512 44.3616C32.6512 46.6395 32.2236 48.3676 31.3685 49.5458C30.5134 50.6455 29.1141 51.1953 27.1706 51.1953C26.0045 51.1953 24.8385 50.7633 23.6724 49.8993C22.584 48.9567 22.0399 47.9356 22.0399 46.8359C22.0399 40.6306 21.8844 35.682 21.5734 31.9902C19.4745 31.7546 18.1529 31.6368 17.6088 31.6368C15.743 31.6368 13.9162 31.7546 12.1282 31.9902C9.79604 32.1473 8.12466 32.2259 7.11406 32.2259C5.09286 32.1473 3.38261 31.7546 1.98331 31.0476C0.661755 30.2622 0.000976562 29.0839 0.000976562 27.513C0.000976562 25.7849 0.3508 24.5674 1.05045 23.8605C2.21653 22.6037 4.50982 21.9753 7.93032 21.9753C9.71831 21.9753 11.7006 21.8968 13.8773 21.7397C15.743 21.5826 17.0257 21.504 17.7254 21.504C18.425 21.504 19.0858 21.5826 19.7077 21.7397C20.3296 21.8182 20.9127 21.8575 21.4568 21.8575C21.6123 21.1505 21.6901 20.0116 21.6901 18.4406C21.6901 17.1053 21.6123 15.1809 21.4568 12.6673C21.3014 10.3109 21.2236 8.5828 21.2236 7.48313C21.2236 5.12667 21.5346 3.39861 22.1565 2.29893C22.8561 1.19925 24.2166 0.649414 26.2378 0.649414C28.0258 0.649414 29.3862 1.04216 30.319 1.82764C31.2519 2.53458 31.7183 3.55571 31.7183 4.89103C31.7961 6.54055 31.7572 8.93627 31.6017 12.0782L31.4851 17.3802C31.4851 19.2654 31.524 20.6793 31.6017 21.6218C33.4675 21.7789 34.8279 21.8575 35.683 21.8575C37.471 21.8575 38.7926 21.8182 39.6477 21.7397L43.8456 21.6218Z" fill="#979797"/>
<path d="M66.2391 20.2086C67.4829 20.2086 68.4935 20.5621 69.2709 21.269C70.0483 21.8974 70.437 22.6829 70.437 23.6254C70.437 24.4895 70.2427 25.275 69.854 25.9819C67.2886 30.0664 65.073 33.876 63.2073 37.4107C61.3416 40.9454 59.0094 45.5404 56.2108 51.1959C55.1225 53.3953 53.3734 56.8907 50.9635 61.6822C49.7974 63.9601 48.126 67.6911 45.9493 72.8753C42.762 80.1018 40.1578 85.6001 38.1366 89.3705C35.7267 94.0834 32.967 96.4398 29.8574 96.4398C25.8928 96.4398 23.9104 95.026 23.9104 92.1982C23.9104 91.0985 24.2603 90.0774 24.9599 89.1348C29.1578 82.9295 32.7338 76.9205 35.6878 71.108C38.7196 65.2168 41.9847 58.3438 45.4829 50.489C49.4476 41.5345 52.7903 34.5437 55.5112 29.5166C56.8327 26.8459 58.232 24.6466 59.7091 22.9185C61.2638 21.1119 63.4405 20.2086 66.2391 20.2086Z" fill="#979797"/>
<path d="M78.6302 80.0625C82.2062 80.0625 83.9942 82.1048 83.9942 86.1893C83.9942 88.3101 83.2557 89.8418 81.7786 90.7843C80.3793 91.7269 78.6302 92.1982 76.5313 92.1982C75.9093 92.1982 75.2486 92.1589 74.5489 92.0804C73.8493 92.0018 73.1108 91.9233 72.3334 91.8447C70.0012 91.452 67.9023 91.2556 66.0365 91.2556C64.715 91.2556 62.7326 91.4127 60.0895 91.7269C57.2909 92.0411 55.1531 92.1982 53.6761 92.1982C51.5772 92.1982 49.7114 91.8055 48.0789 91.02C46.4464 90.156 45.6301 88.7421 45.6301 86.7784C45.6301 84.0292 46.6407 82.2618 48.6619 81.4764C50.6831 80.6123 53.5206 80.1803 57.1743 80.1803L61.0224 80.2981C62.8881 80.4552 64.3263 80.5338 65.3369 80.5338L73.8493 80.2981L78.6302 80.0625Z" fill="#979797"/>
</svg>
