<svg width="74" height="75" viewBox="0 0 74 75" fill="none" xmlns="http://www.w3.org/2000/svg">
<path d="M63.4953 0C64.5847 0 65.4017 0.425696 65.9464 1.27709C66.4911 2.12848 66.7634 3.09598 66.7634 4.17957C66.7634 5.65016 66.1409 7.12074 64.8959 8.59133L60.3439 14.3963C51.4732 25.9288 44.3533 35.4876 38.9842 43.0728C33.6151 50.6579 28.4406 58.9783 23.4606 68.0341C21.0484 72.678 18.286 75 15.1735 75C13.7729 75 12.5279 74.6517 11.4385 73.9551C10.3491 73.1811 9.80442 71.904 9.80442 70.1238C9.80442 68.9629 10.1546 67.9954 10.8549 67.2214C13.4227 63.5836 18.0137 56.8111 24.6278 46.904C30.8528 37.6935 35.9884 30.1858 40.0347 24.3808C44.1588 18.4985 48.1661 13.1579 52.0568 8.35913C52.368 7.97213 53.1073 7.00464 54.2745 5.45666C55.5195 3.90867 56.9201 2.63158 58.4763 1.62539C60.0326 0.541796 61.7056 0 63.4953 0ZM17.2744 1.27709C19.6088 1.27709 21.9821 1.81888 24.3943 2.90247C26.8843 3.98607 28.9464 5.53405 30.5804 7.54644C32.2145 9.48142 33.0315 11.6486 33.0315 14.048C33.0315 17.4536 32.2923 20.5495 30.8139 23.3359C29.3354 26.1223 27.3123 28.3282 24.7445 29.9536C22.1767 31.5015 19.3365 32.2755 16.224 32.2755C11.3218 32.2755 7.39222 30.8437 4.43533 27.9799C1.47844 25.0387 0 21.2074 0 16.4861C0 11.5325 1.51735 7.77864 4.55205 5.22446C7.66456 2.59288 11.9054 1.27709 17.2744 1.27709ZM14.7066 23.452C20.3091 23.452 23.1104 20.4721 23.1104 14.5124C23.1104 13.0418 22.5657 11.9582 21.4763 11.2616C20.4648 10.565 18.8307 10.2167 16.5741 10.2167C14.0841 10.2167 12.1777 10.8746 10.8549 12.1904C9.60988 13.4288 8.98738 14.8607 8.98738 16.4861C8.98738 18.2663 9.53207 19.8916 10.6215 21.3622C11.7108 22.7554 13.0726 23.452 14.7066 23.452ZM74 58.2817C74 61.3003 73.1441 64.0093 71.4322 66.4087C69.7981 68.7307 67.5804 70.5495 64.7792 71.8653C62.0557 73.1811 59.1767 73.839 56.142 73.839C53.5741 73.839 51.1619 73.2198 48.9054 71.9814C46.6488 70.6656 44.8202 68.8855 43.4196 66.6409C42.0967 64.3963 41.4353 61.8808 41.4353 59.0944C41.4353 56.2307 42.1356 53.5217 43.5363 50.9675C45.0147 48.4133 47.1157 46.3622 49.8391 44.8142C52.5626 43.1889 55.7529 42.3762 59.4101 42.3762C64.1567 42.3762 67.775 43.7693 70.265 46.5557C72.755 49.2647 74 53.1734 74 58.2817ZM58.4763 51.1997C56.2198 51.1997 54.3912 51.7802 52.9905 52.9412C51.6677 54.1022 51.0063 55.9211 51.0063 58.3978C51.0063 60.565 51.551 62.2291 52.6404 63.3901C53.7298 64.5511 54.897 65.1316 56.142 65.1316C62.1335 65.1316 65.1293 62.4613 65.1293 57.1207C65.1293 55.3406 64.5457 53.9087 63.3786 52.8251C62.2114 51.7415 60.5773 51.1997 58.4763 51.1997Z" fill="#979797"/>
</svg>
