<svg width="57" height="55" viewBox="0 0 57 55" fill="none" xmlns="http://www.w3.org/2000/svg">
<path d="M47.9463 22.8205C51.6018 22.8205 54.0246 23.2051 55.2148 23.9744C56.4049 24.6581 57 26.1966 57 28.5897C57 30.4701 56.1074 31.8376 54.3221 32.6923C52.5369 33.547 50.4541 33.9744 48.0738 33.9744L43.8658 34.1026C40.9754 34.2735 38.8501 34.359 37.4899 34.359C36.2998 34.359 35.5347 34.3162 35.1946 34.2308C35.0246 34.8291 34.9396 35.812 34.9396 37.1795C34.8546 38.3761 34.9821 40.2564 35.3222 42.8205C35.4072 43.3333 35.4922 44.0598 35.5772 45C35.6622 45.9402 35.7047 46.7949 35.7047 47.5641C35.7047 50.0427 35.2371 51.9231 34.302 53.2051C33.3669 54.4017 31.8367 55 29.7114 55C28.4362 55 27.1611 54.5299 25.8859 53.5897C24.6958 52.5641 24.1007 51.453 24.1007 50.2564C24.1007 43.5043 23.9306 38.1197 23.5906 34.1026C21.2953 33.8462 19.8501 33.7179 19.255 33.7179C17.2148 33.7179 15.217 33.8462 13.2617 34.1026C10.7114 34.2735 8.88367 34.359 7.77852 34.359C5.56823 34.2735 3.69799 33.8462 2.16779 33.0769C0.722595 32.2222 0 30.9402 0 29.2308C0 27.3504 0.38255 26.0256 1.14765 25.2564C2.42282 23.8889 4.93065 23.2051 8.67114 23.2051C10.6264 23.2051 12.7942 23.1197 15.1745 22.9487C17.2148 22.7778 18.6174 22.6923 19.3826 22.6923C20.1477 22.6923 20.8702 22.7778 21.5503 22.9487C22.2304 23.0342 22.868 23.0769 23.4631 23.0769C23.6331 22.3077 23.7181 21.0684 23.7181 19.359C23.7181 17.906 23.6331 15.812 23.4631 13.0769C23.2931 10.5128 23.2081 8.63248 23.2081 7.4359C23.2081 4.87179 23.5481 2.99145 24.2282 1.79487C24.9933 0.59829 26.481 0 28.6913 0C30.6465 0 32.1342 0.42735 33.1544 1.28205C34.1745 2.05128 34.6846 3.16239 34.6846 4.61539C34.7696 6.41026 34.7271 9.01709 34.557 12.4359L34.4295 18.2051C34.4295 20.2564 34.472 21.7949 34.557 22.8205C36.5973 22.9915 38.085 23.0769 39.0201 23.0769C40.9754 23.0769 42.4206 23.0342 43.3557 22.9487L47.9463 22.8205Z" fill="#979797"/>
</svg>
