<svg width="134" height="133" viewBox="0 0 134 133" fill="none" xmlns="http://www.w3.org/2000/svg">
<path d="M78.6082 8.3125C79.4948 8.31253 80.3585 8.59183 81.0749 9.11019C81.7913 9.62855 82.3235 10.3592 82.5947 11.1969L87.201 25.403C89.1356 26.3423 90.9865 27.398 92.7536 28.5867L107.46 25.4446C108.327 25.2608 109.231 25.355 110.04 25.7135C110.85 26.072 111.524 26.6764 111.966 27.4396L123.574 47.3812C124.017 48.144 124.205 49.0267 124.11 49.9022C124.015 50.7776 123.642 51.6006 123.046 52.2524L112.954 63.308C113.101 65.428 113.101 67.5554 112.954 69.6754L123.046 80.7476C123.642 81.3994 124.015 82.2224 124.11 83.0978C124.205 83.9733 124.017 84.856 123.574 85.6188L111.966 105.569C111.523 106.33 110.848 106.933 110.039 107.29C109.229 107.647 108.326 107.74 107.46 107.555L92.7536 104.413C90.9949 105.594 89.1356 106.658 87.2094 107.597L82.5947 121.803C82.3235 122.641 81.7913 123.371 81.0749 123.89C80.3585 124.408 79.4948 124.687 78.6082 124.688H55.3927C54.5062 124.687 53.6425 124.408 52.9261 123.89C52.2097 123.371 51.6775 122.641 51.4062 121.803L46.8084 107.605C44.8789 106.669 43.0179 105.599 41.239 104.405L26.5409 107.555C25.6737 107.739 24.7703 107.645 23.9605 107.286C23.1508 106.928 22.4766 106.324 22.0351 105.56L10.4274 85.6188C9.9841 84.856 9.79636 83.9733 9.89118 83.0978C9.98601 82.2224 10.3585 81.3994 10.955 80.7476L21.0469 69.6754C20.9007 67.5609 20.9007 65.4391 21.0469 63.3246L10.955 52.2524C10.3585 51.6006 9.98601 50.7776 9.89118 49.9022C9.79636 49.0267 9.9841 48.144 10.4274 47.3812L22.0351 27.4312C22.4778 26.6696 23.1525 26.067 23.9622 25.71C24.7718 25.353 25.6746 25.2601 26.5409 25.4446L41.239 28.595C43.0145 27.4063 44.8737 26.334 46.8084 25.3947L51.4146 11.1969C51.685 10.3619 52.2146 9.63318 52.9277 9.11507C53.6407 8.59697 54.5007 8.31604 55.3844 8.3125H78.5999H78.6082ZM75.543 16.625H58.458L53.701 31.3132L50.4934 32.8676C48.9165 33.6335 47.3943 34.5056 45.9374 35.4778L42.9726 37.4727L27.7636 34.2143L19.2211 48.9107L29.648 60.3654L29.3967 63.8899C29.2764 65.6279 29.2764 67.3721 29.3967 69.1101L29.648 72.6346L19.2044 84.0893L27.7552 98.7857L42.9642 95.5356L45.929 97.5223C47.3859 98.4944 48.9081 99.3665 50.485 100.132L53.6926 101.687L58.458 116.375H75.5597L80.3335 101.679L83.5327 100.132C85.1079 99.3683 86.6274 98.4961 88.0804 97.5223L91.0367 95.5356L106.254 98.7857L114.797 84.0893L104.361 72.6346L104.613 69.1101C104.733 67.3693 104.733 65.6224 104.613 63.8816L104.361 60.3571L114.805 48.9107L106.254 34.2143L91.0367 37.4561L88.0804 35.4778C86.6276 34.5036 85.108 33.6315 83.5327 32.8676L80.3335 31.3215L75.5514 16.625H75.543Z" fill="#979797"/>
<path d="M67 41.5625C73.6636 41.5625 80.0542 44.1898 84.7661 48.8665C89.4779 53.5432 92.125 59.8862 92.125 66.5C92.125 73.1138 89.4779 79.4568 84.7661 84.1335C80.0542 88.8102 73.6636 91.4375 67 91.4375C60.3364 91.4375 53.9458 88.8102 49.2339 84.1335C44.5221 79.4568 41.875 73.1138 41.875 66.5C41.875 59.8862 44.5221 53.5432 49.2339 48.8665C53.9458 44.1898 60.3364 41.5625 67 41.5625V41.5625ZM67 49.875C62.5576 49.875 58.2972 51.6266 55.156 54.7443C52.0147 57.8621 50.25 62.0908 50.25 66.5C50.25 70.9092 52.0147 75.1379 55.156 78.2556C58.2972 81.3734 62.5576 83.125 67 83.125C71.4424 83.125 75.7028 81.3734 78.844 78.2556C81.9853 75.1379 83.75 70.9092 83.75 66.5C83.75 62.0908 81.9853 57.8621 78.844 54.7443C75.7028 51.6266 71.4424 49.875 67 49.875V49.875Z" fill="#979797"/>
</svg>
